<?xml version="1.0" encoding="UTF-8" standalone="no"?>
<svg
   xmlns:dc="http://purl.org/dc/elements/1.1/"
   xmlns:cc="http://creativecommons.org/ns#"
   xmlns:rdf="http://www.w3.org/1999/02/22-rdf-syntax-ns#"
   xmlns:svg="http://www.w3.org/2000/svg"
   xmlns="http://www.w3.org/2000/svg"
   xmlns:xlink="http://www.w3.org/1999/xlink"
   xmlns:sodipodi="http://sodipodi.sourceforge.net/DTD/sodipodi-0.dtd"
   xmlns:inkscape="http://www.inkscape.org/namespaces/inkscape"
   width="960"
   height="320"
   viewBox="0 0 960 320.00001"
   version="1.1"
   id="svg18"
   sodipodi:docname="r-v2.svg"
   inkscape:version="0.92.3 (2405546, 2018-03-11)">
  <metadata
     id="metadata22">
    <rdf:RDF>
      <cc:Work
         rdf:about="">
        <dc:format>image/svg+xml</dc:format>
        <dc:type
           rdf:resource="http://purl.org/dc/dcmitype/StillImage" />
        <dc:title></dc:title>
      </cc:Work>
    </rdf:RDF>
  </metadata>
  <sodipodi:namedview
     pagecolor="#ffffff"
     bordercolor="#666666"
     borderopacity="1"
     objecttolerance="10"
     gridtolerance="10"
     guidetolerance="10"
     inkscape:pageopacity="0"
     inkscape:pageshadow="2"
     inkscape:window-width="1920"
     inkscape:window-height="1017"
     id="namedview20"
     showgrid="false"
     inkscape:zoom="1"
     inkscape:cx="351.63636"
     inkscape:cy="129"
     inkscape:window-x="-8"
     inkscape:window-y="-8"
     inkscape:window-maximized="1"
     inkscape:current-layer="svg18"
     inkscape:measure-start="960,124"
     inkscape:measure-end="847.911,119.795"
     showguides="true"
     inkscape:guide-bbox="true">
    <sodipodi:guide
       position="636.38959,149.67611"
       orientation="1,0"
       id="guide839"
       inkscape:locked="false" />
    <sodipodi:guide
       position="418.05699,159.15876"
       orientation="0,1"
       id="guide1014"
       inkscape:locked="false" />
    <sodipodi:guide
       position="320.85617,171.18007"
       orientation="1,0"
       id="guide861"
       inkscape:locked="false" />
    <sodipodi:guide
       position="880.00001,209.00001"
       orientation="1,0"
       id="guide881"
       inkscape:locked="false"
       inkscape:label=""
       inkscape:color="rgb(0,0,255)" />
    <sodipodi:guide
       position="80.000001,199.00001"
       orientation="1,0"
       id="guide883"
       inkscape:locked="false"
       inkscape:label=""
       inkscape:color="rgb(0,0,255)" />
    <sodipodi:guide
       position="692.00001,240"
       orientation="0,1"
       id="guide887"
       inkscape:locked="false"
       inkscape:label=""
       inkscape:color="rgb(0,0,255)" />
    <sodipodi:guide
       position="567,80.000001"
       orientation="0,1"
       id="guide891"
       inkscape:locked="false"
       inkscape:label=""
       inkscape:color="rgb(0,0,255)" />
  </sodipodi:namedview>
  <defs
     id="defs8">
    <linearGradient
       id="a">
      <stop
         offset="0"
         stop-opacity=".4"
         id="stop2" />
      <stop
         offset="1"
         stop-opacity="0"
         id="stop4" />
    </linearGradient>
    <radialGradient
       xlink:href="#a"
       id="b"
       cx="248"
       cy="892.362"
       fx="248"
       fy="892.362"
       r="8"
       gradientTransform="matrix(0.96593,-0.25882,5.17638,19.31852,-4714.62,-17013.889)"
       gradientUnits="userSpaceOnUse" />
  </defs>
  <g
     aria-label="Robert"
     style="font-style:normal;font-weight:normal;font-size:40px;line-height:1.25;font-family:sans-serif;letter-spacing:0px;word-spacing:0px;fill:#000000;fill-opacity:1;stroke:none"
     id="text854" />
  <g
     id="g850"
     transform="matrix(1.0352258,0,0,1.0352258,-26.342535,-6.7007034)">
    <path
       style="font-size:197.10099792px;line-height:125%;font-family:sans-serif;letter-spacing:0;word-spacing:0"
       d="m 157.158,96.516 c -3.72,0 -8.21,0.128 -13.472,0.385 -5.26,0.256 -9.816,0.384 -13.666,0.384 l -3.02,-0.05 11.296,42.154 v -11.884 c 0,-6.288 0.065,-10.906 0.193,-13.857 0.258,-3.08 0.514,-5.007 0.77,-5.777 0.386,-0.898 0.835,-1.41 1.348,-1.54 3.208,-0.897 7.7,-1.346 13.475,-1.346 17.965,0 26.947,8.917 26.947,26.753 0,7.443 -2.438,13.412 -7.314,17.903 -4.748,4.49 -9.368,6.736 -13.86,6.736 h -4.812 c -5.59,0 -9.777,-0.47 -12.568,-1.4 l 2.603,9.72 c 2.215,0.09 3.877,0.332 4.96,0.726 1.412,0.642 2.695,1.475 3.85,2.502 1.283,1.026 2.694,2.566 4.234,4.62 1.668,2.052 3.08,3.978 4.234,5.774 1.284,1.67 3.21,4.49 5.776,8.47 2.694,3.85 5.068,7.184 7.12,10.007 13.218,18.477 28.81,27.718 46.774,27.718 2.053,0 3.786,-0.193 5.198,-0.578 0.385,-0.77 0.576,-1.732 0.576,-2.887 0,-1.027 -0.19,-1.925 -0.576,-2.695 -7.7,0 -17.71,-6.738 -30.028,-20.21 -8.34,-9.112 -15.72,-20.405 -22.135,-33.878 -0.513,-0.77 -0.128,-1.41 1.155,-1.924 6.93,-3.208 12.383,-7.763 16.36,-13.666 4.107,-5.903 6.16,-11.55 6.16,-16.94 0,-6.287 -1.412,-11.804 -4.235,-16.552 -2.823,-4.748 -6.416,-8.405 -10.78,-10.97 -4.362,-2.567 -8.79,-4.493 -13.28,-5.776 -4.492,-1.284 -8.92,-1.924 -13.282,-1.924 z"
       font-size="197.101"
       letter-spacing="0"
       word-spacing="0"
       id="path12"
       inkscape:connector-curvature="0" />
    <path
       d="m 102.725,6.488 82.822,309.096 A 160,8 75 0 0 151.864,158.964 160,8 75 0 0 102.724,6.487 Z"
       id="path14"
       style="fill:url(#b)"
       inkscape:connector-curvature="0" />
  </g>
  <path
     inkscape:connector-curvature="0"
     id="path980"
     style="font-style:normal;font-variant:normal;font-weight:800;font-stretch:normal;font-size:96px;line-height:1.25;font-family:'Merriweather Sans';-inkscape-font-specification:'Merriweather Sans Ultra-Bold';letter-spacing:-3px;word-spacing:0px;fill:#000000;fill-opacity:1;stroke:none"
     d="m 379.91605,160.62495 h -19.6875 q -0.5625,-0.70312 -1.03125,-1.54687 -0.42188,-0.89063 -1.54688,-3.51563 -1.3125,-3 -2.85937,-7.6875 -1.45313,-4.26562 -2.48438,-6.70312 -1.03125,-2.4375 -2.48437,-4.125 -1.45313,-1.6875 -3.375,-1.82813 -2.67188,0.1875 -7.73438,0.1875 v 25.21875 h -17.8125 V 89.281204 h 6.14063 q 1.6875,0 7.03125,-0.28125 0.75,-0.04687 4.96875,-0.234375 4.21875,-0.234375 9.46875,-0.234375 7.03125,0 12.98437,2.0625 5.95313,2.0625 9.75,7.125 3.84375,5.015626 3.84375,13.453126 0,15.23437 -11.29687,20.53125 2.4375,1.92187 4.21875,5.15625 1.82812,3.23437 4.35937,9 1.45313,3.375 2.4375,5.53125 1.03125,2.10937 2.15625,4.07812 z M 338.71292,123.0312 q 1.35938,0.1875 4.125,0.28125 2.8125,0.0937 4.64063,0.0469 5.20312,0 7.82812,-3.28125 2.625,-3.32813 2.625,-8.57813 0,-10.35937 -11.625,-10.35937 -4.54687,0 -7.59375,0.84375 z" />
  <path
     inkscape:connector-curvature="0"
     id="path982"
     style="font-style:normal;font-variant:normal;font-weight:800;font-stretch:normal;font-size:96px;line-height:1.25;font-family:'Merriweather Sans';-inkscape-font-specification:'Merriweather Sans Ultra-Bold';letter-spacing:-3px;word-spacing:0px;fill:#000000;fill-opacity:1;stroke:none"
     d="m 382.8223,133.43745 q 0,-8.57812 3.46875,-14.625 3.51562,-6.09375 9.75,-9.23437 6.23437,-3.14063 14.4375,-3.14063 9.32812,0 15.28125,3.70313 5.95312,3.70312 8.625,9.9375 2.71875,6.23437 2.71875,14.15625 0,8.625 -3.46875,14.76562 -3.46875,6.09375 -9.70313,9.23438 -6.23437,3.14062 -14.4375,3.14062 -9.375,0 -15.32812,-3.70312 -5.95313,-3.75 -8.67188,-9.98438 -2.67187,-6.28125 -2.67187,-14.25 z m 36.23437,0.75 q 0,-7.125 -2.10937,-11.39062 -2.0625,-4.3125 -6.79688,-4.3125 -5.0625,0 -7.17187,3.65625 -2.10938,3.60937 -2.10938,11.20312 0,7.26563 2.10938,11.67188 2.15625,4.40625 6.89062,4.40625 5.01563,0 7.07813,-3.65625 2.10937,-3.70313 2.10937,-11.57813 z" />
  <path
     inkscape:connector-curvature="0"
     id="path984"
     style="font-style:normal;font-variant:normal;font-weight:800;font-stretch:normal;font-size:96px;line-height:1.25;font-family:'Merriweather Sans';-inkscape-font-specification:'Merriweather Sans Ultra-Bold';letter-spacing:-3px;word-spacing:0px;fill:#000000;fill-opacity:1;stroke:none"
     d="m 477.79105,106.43745 q 5.85937,0 10.64062,2.85938 4.82813,2.8125 7.6875,8.57812 2.85938,5.71875 2.85938,14.0625 0,8.95313 -3.51563,15.70313 -3.46875,6.70312 -9.89062,10.35937 -6.375,3.60938 -14.90625,3.60938 -5.15625,0 -10.6875,-0.75 -5.53125,-0.70313 -9.5625,-1.6875 -4.03125,-0.98438 -4.73438,-1.54688 V 82.765579 H 463.0723 V 102.0312 l -0.375,9.79688 q 5.90625,-5.39063 15.09375,-5.39063 z m 3.04687,26.34375 q 0,-7.35937 -2.34375,-10.40625 -2.34375,-3.04687 -6.65625,-3.04687 -2.53125,0 -4.96875,0.89062 -2.39062,0.84375 -3.79687,1.92188 v 26.20312 q 1.40625,1.59375 7.3125,1.59375 3,0 5.39062,-2.01562 2.39063,-2.01563 3.70313,-5.90625 1.35937,-3.89063 1.35937,-9.23438 z" />
  <path
     inkscape:connector-curvature="0"
     id="path986"
     style="font-style:normal;font-variant:normal;font-weight:800;font-stretch:normal;font-size:96px;line-height:1.25;font-family:'Merriweather Sans';-inkscape-font-specification:'Merriweather Sans Ultra-Bold';letter-spacing:-3px;word-spacing:0px;fill:#000000;fill-opacity:1;stroke:none"
     d="m 553.16605,128.14058 q 0,5.90625 -0.5625,9.84375 h -31.35938 q 0.5625,5.8125 3.9375,8.48437 3.375,2.625 9.42188,2.625 3.79687,0 8.0625,-0.79687 4.3125,-0.84375 6.28125,-1.92188 l 2.67187,9.23438 q -2.90625,2.34375 -8.625,4.07812 -5.71875,1.6875 -12.46875,1.6875 -8.53125,0 -14.53125,-3.28125 -5.95312,-3.32812 -9.04687,-9.51562 -3.04688,-6.23438 -3.04688,-14.90625 0,-7.82813 3.1875,-14.01563 3.1875,-6.1875 9.23438,-9.70312 6.09375,-3.51563 14.39062,-3.51563 9.84375,0 16.07813,4.92188 6.28125,4.92187 6.375,16.78125 z m -16.07813,1.17187 q 0.0469,-0.70312 0.0469,-2.01562 0,-4.92188 -1.64063,-7.26563 -1.59375,-2.39062 -5.15625,-2.39062 -3.89062,0 -6.09375,2.67187 -2.20312,2.625 -2.85937,9 z" />
  <path
     inkscape:connector-curvature="0"
     id="path988"
     style="font-style:normal;font-variant:normal;font-weight:800;font-stretch:normal;font-size:96px;line-height:1.25;font-family:'Merriweather Sans';-inkscape-font-specification:'Merriweather Sans Ultra-Bold';letter-spacing:-3px;word-spacing:0px;fill:#000000;fill-opacity:1;stroke:none"
     d="m 592.6348,106.3437 q 2.90625,0 3.89062,0.65625 v 17.10938 q -2.20312,-1.26563 -5.71875,-1.26563 -7.54687,0 -12.14062,5.10938 v 32.67187 h -17.39063 v -53.4375 h 15.23438 l 0.75,8.57813 q 1.07812,-2.71875 3.32812,-4.875 2.29688,-2.15625 5.39063,-3.32813 3.14062,-1.21875 6.65625,-1.21875 z" />
  <path
     inkscape:connector-curvature="0"
     id="path990"
     style="font-style:normal;font-variant:normal;font-weight:800;font-stretch:normal;font-size:96px;line-height:1.25;font-family:'Merriweather Sans';-inkscape-font-specification:'Merriweather Sans Ultra-Bold';letter-spacing:-3px;word-spacing:0px;fill:#000000;fill-opacity:1;stroke:none"
     d="m 605.33792,118.57808 h -6.1875 v -9.1875 q 4.125,-1.21875 6.1875,-2.25 2.0625,-1.07813 3.04688,-3.14063 0.60937,-1.21875 2.39062,-5.718746 l 1.35938,-3.28125 h 10.54687 v 12.187496 h 13.875 v 11.39063 h -13.875 v 19.03125 q 0,4.96875 0.51563,7.21875 0.5625,2.25 1.78125,2.90625 1.26562,0.65625 3.89062,0.65625 1.82813,0 4.21875,-0.60938 2.39063,-0.65625 3.60938,-1.5 l 2.0625,9.65625 q -1.35938,1.26563 -4.125,2.53125 -2.76563,1.26563 -6.375,2.10938 -3.60938,0.79687 -7.3125,0.79687 -5.67188,0 -9.14063,-1.875 -3.42187,-1.92187 -4.96875,-5.71875 -1.5,-3.84375 -1.5,-9.79687 z" />
  <path
     inkscape:connector-curvature="0"
     id="path1016"
     style="font-style:normal;font-variant:normal;font-weight:bold;font-stretch:normal;font-size:medium;line-height:1.25;font-family:'Merriweather Sans';-inkscape-font-specification:'Merriweather Sans Bold';letter-spacing:-3.13093352px;word-spacing:0px;fill:#000000;fill-opacity:1;stroke:none;stroke-width:2.1977396"
     d="m 370.46378,177.27064 -18.67221,49.62084 h -12.40521 l -18.58635,-49.62084 h 14.46559 l 7.46888,24.03777 3.1335,11.93304 2.9618,-11.93304 7.46888,-24.03777 z" />
  <path
     inkscape:connector-curvature="0"
     id="path1018"
     style="font-style:normal;font-variant:normal;font-weight:bold;font-stretch:normal;font-size:medium;line-height:1.25;font-family:'Merriweather Sans';-inkscape-font-specification:'Merriweather Sans Bold';letter-spacing:-3.13093352px;word-spacing:0px;fill:#000000;fill-opacity:1;stroke:none;stroke-width:2.1977396"
     d="m 394.16072,176.32629 q 7.12549,0 11.37502,1.58821 4.29246,1.54529 6.39577,5.45143 2.1033,3.86321 2.1033,10.85992 v 32.66563 h -7.81228 q -1.9316,0 -2.91887,-0.25755 -0.98726,-0.25755 -1.54528,-1.20189 -0.55802,-0.94434 -0.55802,-3.00472 v -0.3434 q -2.23208,2.06038 -5.49435,3.43397 -3.26227,1.37359 -7.25426,1.37359 -4.72171,0 -8.3703,-2.01746 -3.60566,-2.06038 -5.62312,-5.66605 -1.97453,-3.64859 -1.97453,-8.24152 0,-4.29246 2.18915,-7.34011 2.23208,-3.04765 6.35284,-4.8934 6.39577,-2.83303 19.61655,-2.83303 v -3.09057 q 0,-2.74717 -0.72972,-4.03491 -0.6868,-1.28774 -2.70425,-1.75991 -1.97453,-0.47217 -6.26699,-0.47217 -2.06038,0 -6.267,1.07311 -4.20661,1.0302 -7.21133,2.40378 l -2.9618,-8.58492 q 1.71699,-1.03019 4.97926,-2.23208 3.26227,-1.20189 7.16841,-2.01745 3.90614,-0.8585 7.5118,-0.8585 z m -1.11604,41.50809 q 2.14623,0 4.50709,-0.85849 2.36085,-0.90141 3.09057,-1.84576 v -11.67549 q -2.44671,0 -5.53728,0.55802 -3.04764,0.5151 -4.55,1.20189 -1.93161,0.72972 -3.09058,1.97453 -1.15896,1.24482 -1.15896,3.69152 0,3.43397 1.84576,5.19388 1.88868,1.7599 4.8934,1.7599 z" />
  <path
     inkscape:connector-curvature="0"
     id="path1020"
     style="font-style:normal;font-variant:normal;font-weight:bold;font-stretch:normal;font-size:medium;line-height:1.25;font-family:'Merriweather Sans';-inkscape-font-specification:'Merriweather Sans Bold';letter-spacing:-3.13093352px;word-spacing:0px;fill:#000000;fill-opacity:1;stroke:none;stroke-width:2.1977396"
     d="m 437.13081,177.27064 0.25754,5.2368 q 2.9618,-2.23208 7.38304,-4.07784 4.42123,-1.84576 8.54199,-1.97453 5.27973,-0.1717 8.62785,1.67406 3.34812,1.80283 4.97925,6.05237 1.67406,4.20661 1.67406,11.33209 v 30.69109 h -13.39248 v -27.81514 q 0,-4.16369 -0.64386,-6.43869 -0.64387,-2.31793 -2.18916,-3.30519 -1.54529,-0.98727 -4.37831,-0.90142 -2.14623,0.0429 -4.85048,0.98726 -2.70425,0.94435 -4.76463,2.74718 v 34.726 h -13.39248 v -48.93404 z" />
  <path
     inkscape:connector-curvature="0"
     style="font-style:normal;font-variant:normal;font-weight:bold;font-stretch:normal;font-size:medium;line-height:1.25;font-family:'Merriweather Sans';-inkscape-font-specification:'Merriweather Sans Bold';letter-spacing:-3.13093352px;word-spacing:0px;fill:#000000;fill-opacity:1;stroke:none;stroke-width:2.1977396"
     d="m 547.42383,161.25781 c -0.92873,0.35026 -1.92372,0.68614 -2.98438,1.00781 -3.24231,0.95676 -6.7119,1.53881 -10.40625,1.75586 v 9.64258 l 0.12696,4.29297 c -2.4324,-0.91573 -5.10652,-1.37305 -8.02539,-1.37305 -4.92202,0 -9.27147,1.10123 -13.04883,3.30469 -3.74875,2.20346 -6.66881,5.32251 -8.75782,9.35742 -2.06038,4.03492 -3.08984,8.72882 -3.08984,14.08008 0,5.09372 0.87159,9.41446 2.61719,12.96289 1.77422,3.54844 4.1365,6.21016 7.08398,7.98438 2.9475,1.7456 6.21007,2.61718 9.78711,2.61718 3.51982,0 6.39488,-0.55778 8.62696,-1.67382 2.26069,-1.14466 4.17805,-2.51858 5.75195,-4.1211 v 3.30664 c 0,1.00158 0.25834,1.65983 0.77344,1.97461 0.5437,0.3434 1.35788,0.51367 2.44531,0.51367 h 9.09961 z m -20.90235,24.85547 c 1.7456,0 3.23239,0.10046 4.4629,0.30078 1.2305,0.1717 2.24756,0.52855 3.04882,1.07227 v 26.39844 c -1.08742,0.74402 -2.46134,1.35922 -4.12109,1.8457 -1.63114,0.48648 -3.32081,0.73047 -5.06641,0.73047 -3.09056,0 -5.46524,-1.05817 -7.125,-3.17578 -1.63113,-2.11762 -2.44726,-5.69594 -2.44726,-10.73243 0,-3.57705 0.47363,-6.59562 1.41797,-9.05664 0.97296,-2.461 2.30382,-4.3066 3.99218,-5.53711 1.68837,-1.2305 3.63443,-1.8457 5.83789,-1.8457 z"
     id="path1022" />
  <path
     inkscape:connector-curvature="0"
     id="path1024"
     style="font-style:normal;font-variant:normal;font-weight:bold;font-stretch:normal;font-size:medium;line-height:1.25;font-family:'Merriweather Sans';-inkscape-font-specification:'Merriweather Sans Bold';letter-spacing:-3.13093352px;word-spacing:0px;fill:#000000;fill-opacity:1;stroke:none;stroke-width:2.1977396"
     d="m 598.46472,195.77114 q 0,6.18114 -0.47217,9.18586 h -28.93119 q 0.38633,6.05237 3.77737,9.01417 3.43397,2.9618 9.27171,2.9618 2.7901,0 6.73916,-0.72972 3.99199,-0.77264 5.83775,-1.80283 l 2.18916,7.59765 q -2.53256,2.06038 -7.59766,3.47689 -5.0651,1.41652 -10.55945,1.41652 -7.38303,0 -12.57691,-3.00473 -5.19388,-3.00472 -7.8552,-8.67077 -2.66133,-5.70897 -2.66133,-13.65002 0,-7.21133 2.7901,-12.87738 2.7901,-5.66605 8.11275,-8.88539 5.36558,-3.21935 12.74861,-3.21935 5.32265,0 9.61511,1.93161 4.29246,1.93161 6.86794,6.22407 2.6184,4.29246 2.70425,11.03162 z m -12.44814,1.75991 q 0.0429,-0.64387 0.0429,-1.88868 0,-4.67879 -1.75991,-7.08256 -1.75991,-2.44671 -5.70897,-2.44671 -3.94907,0 -6.30992,2.6184 -2.31793,2.57548 -3.00472,8.79955 z" />
  <path
     inkscape:connector-curvature="0"
     id="path1026"
     style="font-style:normal;font-variant:normal;font-weight:bold;font-stretch:normal;font-size:medium;line-height:1.25;font-family:'Merriweather Sans';-inkscape-font-specification:'Merriweather Sans Bold';letter-spacing:-3.13093352px;word-spacing:0px;fill:#000000;fill-opacity:1;stroke:none;stroke-width:2.1977396"
     d="m 632.72111,176.45507 q 2.79009,0 3.82028,0.60094 v 12.92031 q -0.98726,-0.55802 -2.275,-0.85849 -1.24481,-0.3434 -3.60567,-0.3434 -6.18114,0 -10.90284,4.42123 v 33.00902 H 606.3654 v -48.93404 h 11.89011 l 0.60095,6.69623 q 1.07311,-1.88868 3.17642,-3.60566 2.14623,-1.71699 4.93633,-2.7901 2.83302,-1.11604 5.7519,-1.11604 z" />
  <path
     inkscape:connector-curvature="0"
     id="path1028"
     style="font-style:normal;font-variant:normal;font-weight:800;font-stretch:normal;font-size:medium;line-height:1.25;font-family:'Merriweather Sans';-inkscape-font-specification:'Merriweather Sans Ultra-Bold';letter-spacing:-3.13093352px;word-spacing:0px;fill:#000000;fill-opacity:1;stroke:none;stroke-width:2.1977396"
     d="m 710.54852,160.87344 v 12.19058 h -25.11089 v 13.82173 h 19.359 v 11.89011 h -19.359 v 14.93776 H 713.124 v 12.49106 h -43.86894 v -65.33124 z" />
  <path
     inkscape:connector-curvature="0"
     id="path1030"
     style="font-style:normal;font-variant:normal;font-weight:800;font-stretch:normal;font-size:medium;line-height:1.25;font-family:'Merriweather Sans';-inkscape-font-specification:'Merriweather Sans Ultra-Bold';letter-spacing:-3.13093352px;word-spacing:0px;fill:#000000;fill-opacity:1;stroke:none;stroke-width:2.1977396"
     d="m 736.22002,154.86399 v 71.34069 h -15.92503 v -71.34069 z" />
  <path
     inkscape:connector-curvature="0"
     id="path1032"
     style="font-style:normal;font-variant:normal;font-weight:800;font-stretch:normal;font-size:medium;line-height:1.25;font-family:'Merriweather Sans';-inkscape-font-specification:'Merriweather Sans Ultra-Bold';letter-spacing:-3.13093352px;word-spacing:0px;fill:#000000;fill-opacity:1;stroke:none;stroke-width:2.1977396"
     d="m 746.1811,211.95371 q 0.85849,0.72972 3.17642,1.75991 2.36085,1.03019 5.45142,1.80284 3.09057,0.77264 6.09529,0.77264 3.60567,0 5.19388,-0.85849 1.63114,-0.8585 1.63114,-2.70425 0,-1.28774 -1.20189,-2.31793 -1.20189,-1.03019 -3.43397,-1.93161 -2.18916,-0.94434 -5.96652,-2.18915 -6.65331,-2.18916 -9.65804,-5.9236 -3.00472,-3.77736 -2.96179,-9.52926 0,-4.59293 2.66132,-7.81228 2.70425,-3.21934 7.29718,-4.80755 4.63586,-1.63114 10.38776,-1.63114 5.4085,0 9.52926,0.94434 4.16368,0.90142 6.22407,2.06038 l -1.41652,11.1604 q -0.94434,-0.81557 -2.87594,-1.67406 -1.93161,-0.90142 -4.33539,-1.45944 -2.36085,-0.60094 -4.59293,-0.60094 -4.03491,0 -5.7519,0.81557 -1.71698,0.81557 -1.75991,2.53255 0,1.28774 0.90142,2.23208 0.90142,0.94434 3.00472,1.88868 2.10331,0.90142 6.13822,2.14623 6.95379,2.23208 10.21606,5.70897 3.30519,3.43397 3.30519,9.01417 0,5.02218 -2.53255,8.54199 -2.53255,3.4769 -7.21134,5.27973 -4.63585,1.75991 -10.90284,1.75991 -3.82029,0 -7.46888,-0.64387 -3.6486,-0.60094 -6.43869,-1.50236 -2.7901,-0.94434 -4.24954,-1.84576 z" />
  <path
     inkscape:connector-curvature="0"
     id="path1034"
     style="font-style:normal;font-variant:normal;font-weight:800;font-stretch:normal;font-size:medium;line-height:1.25;font-family:'Merriweather Sans';-inkscape-font-specification:'Merriweather Sans Ultra-Bold';letter-spacing:-3.13093352px;word-spacing:0px;fill:#000000;fill-opacity:1;stroke:none;stroke-width:2.1977396"
     d="m 791.55495,187.70131 h -5.66605 v -8.41322 q 3.77737,-1.11604 5.66605,-2.06038 1.88868,-0.98726 2.7901,-2.87595 0.55802,-1.11604 2.18915,-5.2368 l 1.24482,-3.00472 h 9.65803 v 11.1604 h 12.70568 v 10.43067 h -12.70568 v 17.42739 q 0,4.55001 0.47217,6.61039 0.5151,2.06038 1.63114,2.66133 1.15896,0.60094 3.56274,0.60094 1.67406,0 3.86321,-0.55802 2.18916,-0.60094 3.3052,-1.37359 l 1.88868,8.84247 q -1.24481,1.15897 -3.77736,2.31793 -2.53256,1.15896 -5.83775,1.93161 -3.30519,0.72972 -6.69624,0.72972 -5.19388,0 -8.3703,-1.71699 -3.13349,-1.75991 -4.55,-5.2368 -1.37359,-3.51982 -1.37359,-8.97124 z" />
  <rect
     style="fill:#ff0000;fill-opacity:1;stroke:none;stroke-width:0.86874449;stroke-miterlimit:4;stroke-dasharray:none;stroke-dashoffset:0;stroke-opacity:1"
     id="rect885"
     width="286"
     height="80"
     x="337"
     y="0" />
</svg>
