<?xml version="1.0" encoding="UTF-8" standalone="no"?>
<svg
   xmlns:dc="http://purl.org/dc/elements/1.1/"
   xmlns:cc="http://creativecommons.org/ns#"
   xmlns:rdf="http://www.w3.org/1999/02/22-rdf-syntax-ns#"
   xmlns:svg="http://www.w3.org/2000/svg"
   xmlns="http://www.w3.org/2000/svg"
   xmlns:xlink="http://www.w3.org/1999/xlink"
   xmlns:sodipodi="http://sodipodi.sourceforge.net/DTD/sodipodi-0.dtd"
   xmlns:inkscape="http://www.inkscape.org/namespaces/inkscape"
   width="640"
   height="320"
   viewBox="0 0 640 320.00001"
   version="1.1"
   id="svg18"
   sodipodi:docname="r-v3.svg"
   inkscape:version="0.92.3 (2405546, 2018-03-11)">
  <metadata
     id="metadata22">
    <rdf:RDF>
      <cc:Work
         rdf:about="">
        <dc:format>image/svg+xml</dc:format>
        <dc:type
           rdf:resource="http://purl.org/dc/dcmitype/StillImage" />
        <dc:title />
      </cc:Work>
    </rdf:RDF>
  </metadata>
  <sodipodi:namedview
     pagecolor="#ffffff"
     bordercolor="#666666"
     borderopacity="1"
     objecttolerance="10"
     gridtolerance="10"
     guidetolerance="10"
     inkscape:pageopacity="0"
     inkscape:pageshadow="2"
     inkscape:window-width="1920"
     inkscape:window-height="1017"
     id="namedview20"
     showgrid="false"
     inkscape:zoom="1"
     inkscape:cx="214.82294"
     inkscape:cy="187.04964"
     inkscape:window-x="-8"
     inkscape:window-y="-8"
     inkscape:window-maximized="1"
     inkscape:current-layer="svg18"
     inkscape:measure-start="200,283"
     inkscape:measure-end="640,283"
     showguides="false"
     inkscape:guide-bbox="true">
    <sodipodi:guide
       position="640.00001,149.67611"
       orientation="1,0"
       id="guide839"
       inkscape:locked="false"
       inkscape:label=""
       inkscape:color="rgb(0,0,255)" />
    <sodipodi:guide
       position="418.05699,159.15876"
       orientation="0,1"
       id="guide1014"
       inkscape:locked="false" />
    <sodipodi:guide
       position="160,171.18007"
       orientation="1,0"
       id="guide861"
       inkscape:locked="false"
       inkscape:label=""
       inkscape:color="rgb(0,0,255)" />
    <sodipodi:guide
       position="320,187.00251"
       orientation="1,0"
       id="guide881"
       inkscape:locked="false"
       inkscape:label=""
       inkscape:color="rgb(0,0,255)" />
    <sodipodi:guide
       position="80.000001,199.00001"
       orientation="1,0"
       id="guide883"
       inkscape:locked="false"
       inkscape:label=""
       inkscape:color="rgb(0,0,255)" />
    <sodipodi:guide
       position="692.00001,240"
       orientation="0,1"
       id="guide887"
       inkscape:locked="false"
       inkscape:label=""
       inkscape:color="rgb(0,0,255)" />
    <sodipodi:guide
       position="567,80.000001"
       orientation="0,1"
       id="guide891"
       inkscape:locked="false"
       inkscape:label=""
       inkscape:color="rgb(0,0,255)" />
    <sodipodi:guide
       position="240,134"
       orientation="1,0"
       id="guide893"
       inkscape:locked="false"
       inkscape:label=""
       inkscape:color="rgb(0,0,255)" />
    <sodipodi:guide
       position="400.00001,297.00001"
       orientation="1,0"
       id="guide913"
       inkscape:locked="false"
       inkscape:label=""
       inkscape:color="rgb(0,0,255)" />
    <sodipodi:guide
       position="480.00001,302.00001"
       orientation="1,0"
       id="guide915"
       inkscape:locked="false"
       inkscape:label=""
       inkscape:color="rgb(0,0,255)" />
    <sodipodi:guide
       position="560.00001,323.00001"
       orientation="1,0"
       id="guide917"
       inkscape:locked="false"
       inkscape:label=""
       inkscape:color="rgb(0,0,255)" />
    <sodipodi:guide
       position="200,226.00001"
       orientation="1,0"
       id="guide852"
       inkscape:locked="false"
       inkscape:label=""
       inkscape:color="rgb(0,0,255)" />
  </sodipodi:namedview>
  <defs
     id="defs8">
    <linearGradient
       id="a">
      <stop
         offset="0"
         stop-opacity=".4"
         id="stop2" />
      <stop
         offset="1"
         stop-opacity="0"
         id="stop4" />
    </linearGradient>
    <radialGradient
       xlink:href="#a"
       id="b"
       cx="248"
       cy="892.362"
       fx="248"
       fy="892.362"
       r="8"
       gradientTransform="matrix(0.96593,-0.25882,5.17638,19.31852,-4714.62,-17013.889)"
       gradientUnits="userSpaceOnUse" />
  </defs>
  <g
     aria-label="Robert"
     style="font-style:normal;font-weight:normal;font-size:40px;line-height:1.25;font-family:sans-serif;letter-spacing:0px;word-spacing:0px;fill:#000000;fill-opacity:1;stroke:none"
     id="text854" />
  <g
     id="g850"
     transform="matrix(1.0352258,0,0,1.0352258,-106.34254,-6.7007034)">
    <path
       style="font-size:197.10099792px;line-height:125%;font-family:sans-serif;letter-spacing:0;word-spacing:0"
       d="m 157.158,96.516 c -3.72,0 -8.21,0.128 -13.472,0.385 -5.26,0.256 -9.816,0.384 -13.666,0.384 l -3.02,-0.05 11.296,42.154 v -11.884 c 0,-6.288 0.065,-10.906 0.193,-13.857 0.258,-3.08 0.514,-5.007 0.77,-5.777 0.386,-0.898 0.835,-1.41 1.348,-1.54 3.208,-0.897 7.7,-1.346 13.475,-1.346 17.965,0 26.947,8.917 26.947,26.753 0,7.443 -2.438,13.412 -7.314,17.903 -4.748,4.49 -9.368,6.736 -13.86,6.736 h -4.812 c -5.59,0 -9.777,-0.47 -12.568,-1.4 l 2.603,9.72 c 2.215,0.09 3.877,0.332 4.96,0.726 1.412,0.642 2.695,1.475 3.85,2.502 1.283,1.026 2.694,2.566 4.234,4.62 1.668,2.052 3.08,3.978 4.234,5.774 1.284,1.67 3.21,4.49 5.776,8.47 2.694,3.85 5.068,7.184 7.12,10.007 13.218,18.477 28.81,27.718 46.774,27.718 2.053,0 3.786,-0.193 5.198,-0.578 0.385,-0.77 0.576,-1.732 0.576,-2.887 0,-1.027 -0.19,-1.925 -0.576,-2.695 -7.7,0 -17.71,-6.738 -30.028,-20.21 -8.34,-9.112 -15.72,-20.405 -22.135,-33.878 -0.513,-0.77 -0.128,-1.41 1.155,-1.924 6.93,-3.208 12.383,-7.763 16.36,-13.666 4.107,-5.903 6.16,-11.55 6.16,-16.94 0,-6.287 -1.412,-11.804 -4.235,-16.552 -2.823,-4.748 -6.416,-8.405 -10.78,-10.97 -4.362,-2.567 -8.79,-4.493 -13.28,-5.776 -4.492,-1.284 -8.92,-1.924 -13.282,-1.924 z"
       font-size="197.101"
       letter-spacing="0"
       word-spacing="0"
       id="path12"
       inkscape:connector-curvature="0" />
    <path
       d="m 102.725,6.488 82.822,309.096 A 160,8 75 0 0 151.864,158.964 160,8 75 0 0 102.724,6.487 Z"
       id="path14"
       style="fill:url(#b)"
       inkscape:connector-curvature="0" />
  </g>
  <text
     xml:space="preserve"
     style="font-style:normal;font-weight:normal;font-size:40px;line-height:1.25;font-family:sans-serif;letter-spacing:0px;word-spacing:0px;fill:#000000;fill-opacity:1;stroke:none"
     x="204"
     y="520"
     id="text1005"><tspan
       sodipodi:role="line"
       id="tspan1003"
       x="204"
       y="556.49323" /></text>
  <g
     id="g949"
     transform="translate(40)">
    <path
       d="m 212.55455,161.96165 h -17.5321 q -0.50091,-0.62615 -0.91834,-1.37753 -0.3757,-0.79311 -1.37753,-3.13072 -1.16881,-2.67156 -2.54632,-6.84587 -1.29404,-3.79862 -2.21239,-5.96927 -0.91835,-2.17064 -2.21238,-3.67339 -1.29404,-1.50275 -3.0055,-1.62797 -2.37936,0.16697 -6.88762,0.16697 v 22.45778 H 160 V 98.428669 h 5.46835 q 1.50275,0 6.26146,-0.250459 0.66789,-0.04177 4.42477,-0.20872 3.75688,-0.208711 8.4321,-0.208711 6.26147,0 11.56283,1.836696 5.30138,1.836695 8.68257,6.344945 3.42293,4.46651 3.42293,11.98027 0,13.56651 -10.06008,18.28347 2.17064,1.71147 3.75688,4.59174 1.62797,2.88028 3.8821,8.01467 1.29404,3.00551 2.17064,4.92569 0.91835,1.87844 1.92018,3.63165 z m -36.69218,-33.47796 q 1.21056,0.16698 3.67339,0.25046 2.50459,0.0834 4.13257,0.0418 4.63348,0 6.9711,-2.92202 2.33761,-2.96375 2.33761,-7.63898 0,-9.22523 -10.35229,-9.22523 -4.04907,0 -6.76238,0.75138 z"
       style="font-style:normal;font-variant:normal;font-weight:800;font-stretch:normal;font-size:96px;line-height:1.25;font-family:'Merriweather Sans';-inkscape-font-specification:'Merriweather Sans Ultra-Bold';letter-spacing:0px;word-spacing:0px;fill:#000000;fill-opacity:1;stroke:none;stroke-width:0.89051926"
       id="path929"
       inkscape:connector-curvature="0" />
    <path
       d="m 210.69003,137.75066 q 0,-7.63899 3.08899,-13.02384 3.13072,-5.42661 8.68256,-8.2234 5.55182,-2.79678 12.85687,-2.79678 8.30687,0 13.60825,3.2977 5.30137,3.29771 7.68073,8.84953 2.42109,5.55184 2.42109,12.60642 0,7.68073 -3.08898,13.14907 -3.08899,5.42661 -8.64083,8.22339 -5.55182,2.79679 -12.85687,2.79679 -8.34862,0 -13.64999,-3.29771 -5.30137,-3.33945 -7.72247,-8.89127 -2.37935,-5.59358 -2.37935,-12.6899 z m 32.2674,0.66789 q 0,-6.34495 -1.87843,-10.14358 -1.8367,-3.84036 -6.05276,-3.84036 -4.50825,0 -6.38668,3.25596 -1.87845,3.21422 -1.87845,9.9766 0,6.47018 1.87845,10.39403 1.92018,3.92385 6.13623,3.92385 4.46651,0 6.30321,-3.25596 1.87843,-3.2977 1.87843,-10.31054 z"
       style="font-style:normal;font-variant:normal;font-weight:800;font-stretch:normal;font-size:96px;line-height:1.25;font-family:'Merriweather Sans';-inkscape-font-specification:'Merriweather Sans Ultra-Bold';letter-spacing:0px;word-spacing:0px;fill:#000000;fill-opacity:1;stroke:none;stroke-width:0.89051926"
       id="path931"
       inkscape:connector-curvature="0" />
    <path
       d="m 292.58997,113.70664 q 5.21788,0 9.47568,2.54632 4.29954,2.50459 6.84586,7.63899 2.54634,5.09266 2.54634,12.52293 0,7.97293 -3.13074,13.98393 -3.08899,5.96927 -8.80779,9.22523 -5.67706,3.21421 -13.2743,3.21421 -4.59174,0 -9.51743,-0.66789 -4.92568,-0.62614 -8.51559,-1.50275 -3.5899,-0.8766 -4.21605,-1.37752 V 92.626375 h 15.48669 v 17.156415 l -0.33395,8.7243 q 5.25963,-4.80045 13.44128,-4.80045 z m 2.71329,23.45962 q 0,-6.55367 -2.08715,-9.26697 -2.08715,-2.71331 -5.92752,-2.71331 -2.25412,0 -4.42477,0.79313 -2.12889,0.75137 -3.38118,1.71146 v 23.33439 q 1.25229,1.41927 6.51192,1.41927 2.67156,0 4.80045,-1.79496 2.1289,-1.79495 3.29771,-5.25963 1.21054,-3.46467 1.21054,-8.22338 z"
       style="font-style:normal;font-variant:normal;font-weight:800;font-stretch:normal;font-size:96px;line-height:1.25;font-family:'Merriweather Sans';-inkscape-font-specification:'Merriweather Sans Ultra-Bold';letter-spacing:0px;word-spacing:0px;fill:#000000;fill-opacity:1;stroke:none;stroke-width:0.89051926"
       id="path933"
       inkscape:connector-curvature="0" />
    <path
       d="m 358.82234,133.03369 q 0,5.25962 -0.50092,8.76604 h -27.92613 q 0.50092,5.17615 3.50642,7.55551 3.0055,2.33761 8.39036,2.33761 3.38119,0 7.17982,-0.70964 3.84036,-0.75137 5.59357,-1.71146 l 2.37935,8.22339 q -2.58807,2.08715 -7.68073,3.63165 -5.09265,1.50275 -11.10366,1.50275 -7.59724,0 -12.94036,-2.92202 -5.30137,-2.96376 -8.05641,-8.47385 -2.7133,-5.55182 -2.7133,-13.2743 0,-6.97109 2.83853,-12.48118 2.83853,-5.51009 8.22339,-8.64082 5.4266,-3.13073 12.81512,-3.13073 8.76605,0 14.31789,4.38302 5.59357,4.38303 5.67706,14.94403 z m -14.31789,1.04358 q 0.0418,-0.62615 0.0418,-1.79496 0,-4.38302 -1.46101,-6.47017 -1.41927,-2.12891 -4.59174,-2.12891 -3.46468,0 -5.42661,2.37936 -1.96192,2.33762 -2.54632,8.01468 z"
       style="font-style:normal;font-variant:normal;font-weight:800;font-stretch:normal;font-size:96px;line-height:1.25;font-family:'Merriweather Sans';-inkscape-font-specification:'Merriweather Sans Ultra-Bold';letter-spacing:0px;word-spacing:0px;fill:#000000;fill-opacity:1;stroke:none;stroke-width:0.89051926"
       id="path935"
       inkscape:connector-curvature="0" />
    <path
       d="m 393.0795,113.62315 q 2.58807,0 3.46467,0.58441 v 15.23622 q -1.96192,-1.12706 -5.09266,-1.12706 -6.72063,0 -10.81145,4.54999 v 29.09494 h -15.48669 v -47.58712 h 13.56651 l 0.66789,7.63898 q 0.96008,-2.4211 2.96375,-4.34128 2.04542,-1.92018 4.80046,-2.96376 2.79678,-1.08532 5.92752,-1.08532 z"
       style="font-style:normal;font-variant:normal;font-weight:800;font-stretch:normal;font-size:96px;line-height:1.25;font-family:'Merriweather Sans';-inkscape-font-specification:'Merriweather Sans Ultra-Bold';letter-spacing:0px;word-spacing:0px;fill:#000000;fill-opacity:1;stroke:none;stroke-width:0.89051926"
       id="path937"
       inkscape:connector-curvature="0" />
    <path
       d="m 407.06343,124.5181 h -5.51009 v -8.18165 q 3.67339,-1.08532 5.51009,-2.00367 1.8367,-0.96009 2.7133,-2.79678 0.54266,-1.08532 2.1289,-5.09266 l 1.21055,-2.92201 h 9.39219 v 10.8532 h 12.35596 v 10.14357 h -12.35596 v 16.94769 q 0,4.42477 0.45918,6.42844 0.50092,2.00366 1.58624,2.58807 1.12706,0.5844 3.46467,0.5844 1.62799,0 3.75688,-0.54266 2.1289,-0.5844 3.21422,-1.33577 l 1.8367,8.59907 q -1.21056,1.12706 -3.6734,2.25413 -2.46284,1.12706 -5.67706,1.87843 -3.21422,0.70964 -6.51192,0.70964 -5.05092,0 -8.1399,-1.66972 -3.04725,-1.71147 -4.42477,-5.09266 -1.33578,-3.42293 -1.33578,-8.72431 z"
       style="font-style:normal;font-variant:normal;font-weight:800;font-stretch:normal;font-size:96px;line-height:1.25;font-family:'Merriweather Sans';-inkscape-font-specification:'Merriweather Sans Ultra-Bold';letter-spacing:0px;word-spacing:0px;fill:#000000;fill-opacity:1;stroke:none;stroke-width:0.89051926"
       id="path939"
       inkscape:connector-curvature="0" />
    <g
       transform="matrix(0.89051924,0,0,0.89051924,15.638485,-243.2246)"
       id="g1100">
      <path
         inkscape:connector-curvature="0"
         id="path1061"
         style="font-style:normal;font-variant:normal;font-weight:bold;font-stretch:normal;font-size:96px;line-height:1.25;font-family:'Merriweather Sans';-inkscape-font-specification:'Merriweather Sans Bold';letter-spacing:0px;word-spacing:0px;fill:#000000;fill-opacity:1;stroke:none"
         d="m 216.34375,474.21936 -20.39063,54.1875 h -13.54687 l -20.29688,-54.1875 h 15.79688 l 8.15625,26.25 3.42187,13.03125 3.23438,-13.03125 8.15625,-26.25 z" />
      <path
         inkscape:connector-curvature="0"
         id="path1063"
         style="font-style:normal;font-variant:normal;font-weight:bold;font-stretch:normal;font-size:96px;line-height:1.25;font-family:'Merriweather Sans';-inkscape-font-specification:'Merriweather Sans Bold';letter-spacing:0px;word-spacing:0px;fill:#000000;fill-opacity:1;stroke:none"
         d="m 239.64062,473.18811 q 7.78125,0 12.42188,1.73438 4.6875,1.6875 6.98437,5.95312 2.29688,4.21875 2.29688,11.85938 v 35.67187 h -8.53125 q -2.10938,0 -3.1875,-0.28125 -1.07813,-0.28125 -1.6875,-1.3125 -0.60938,-1.03125 -0.60938,-3.28125 v -0.375 q -2.4375,2.25 -6,3.75 -3.5625,1.5 -7.92187,1.5 -5.15625,0 -9.14063,-2.20312 -3.9375,-2.25 -6.14062,-6.1875 -2.15625,-3.98438 -2.15625,-9 0,-4.6875 2.39062,-8.01563 2.4375,-3.32812 6.9375,-5.34375 6.98438,-3.09375 21.42188,-3.09375 v -3.375 q 0,-3 -0.79688,-4.40625 -0.75,-1.40625 -2.95312,-1.92187 -2.15625,-0.51563 -6.84375,-0.51563 -2.25,0 -6.84375,1.17188 -4.59375,1.125 -7.875,2.625 l -3.23438,-9.375 q 1.875,-1.125 5.4375,-2.4375 3.5625,-1.3125 7.82813,-2.20313 4.26562,-0.9375 8.20312,-0.9375 z m -1.21875,45.32813 q 2.34375,0 4.92188,-0.9375 2.57812,-0.98438 3.375,-2.01563 v -12.75 q -2.67188,0 -6.04688,0.60938 -3.32812,0.5625 -4.96875,1.3125 -2.10937,0.79687 -3.375,2.15625 -1.26562,1.35937 -1.26562,4.03125 0,3.75 2.01562,5.67187 2.0625,1.92188 5.34375,1.92188 z" />
      <path
         inkscape:connector-curvature="0"
         id="path1065"
         style="font-style:normal;font-variant:normal;font-weight:bold;font-stretch:normal;font-size:96px;line-height:1.25;font-family:'Merriweather Sans';-inkscape-font-specification:'Merriweather Sans Bold';letter-spacing:0px;word-spacing:0px;fill:#000000;fill-opacity:1;stroke:none"
         d="m 279.98437,474.21936 0.28125,5.71875 q 3.23438,-2.4375 8.0625,-4.45312 4.82813,-2.01563 9.32813,-2.15625 5.76562,-0.1875 9.42187,1.82812 3.65625,1.96875 5.4375,6.60938 1.82813,4.59375 1.82813,12.375 v 33.51562 h -14.625 v -30.375 q 0,-4.54687 -0.70313,-7.03125 -0.70312,-2.53125 -2.39062,-3.60937 -1.6875,-1.07813 -4.78125,-0.98438 -2.34375,0.0469 -5.29688,1.07813 -2.95312,1.03125 -5.20312,3 v 37.92187 h -14.625 v -53.4375 z" />
    </g>
    <path
       id="path1067"
       d="m 358.32227,163.38867 c -0.41603,0.21053 -0.85221,0.41736 -1.3086,0.61914 -10e-4,6.1e-4 -0.003,0.001 -0.004,0.002 -0.001,5.9e-4 -0.003,0.001 -0.004,0.002 -0.41069,0.18144 -0.83791,0.35884 -1.28125,0.5332 -0.0766,0.0303 -0.15092,0.0617 -0.22852,0.0918 -0.20543,0.0792 -0.42639,0.15468 -0.63867,0.23242 -0.79524,0.29264 -1.62367,0.57851 -2.51758,0.84961 -0.54391,0.1605 -1.09533,0.30819 -1.65234,0.44727 -0.0838,0.0208 -0.16977,0.0383 -0.25391,0.0586 -0.5057,0.1229 -1.01678,0.23839 -1.5332,0.34375 -6.2e-4,1.3e-4 -10e-4,-1.3e-4 -0.002,0 -1.17246,0.23916 -2.37387,0.42936 -3.60156,0.57812 v 8.42383 l 0.125,4.17383 c -2.36544,-0.89052 -4.96616,-1.33594 -7.80469,-1.33594 -4.78654,0 -9.01607,1.07204 -12.68946,3.21485 -3.64556,2.14281 -6.48412,5.17575 -8.51562,9.09961 -2.00367,3.92385 -3.00586,8.48742 -3.00586,13.6914 0,4.95351 0.84933,9.15666 2.54687,12.60742 1.72538,3.45076 4.02037,6.0383 6.88672,7.76368 2.86636,1.69755 6.03899,2.54687 9.51758,2.54687 3.42293,0 6.22,-0.54358 8.39063,-1.62891 2.19847,-1.11314 4.06316,-2.4494 5.59375,-4.00781 v 3.21485 c 0,0.97401 0.2491,1.61381 0.75,1.91992 0.52875,0.33395 1.32336,0.50195 2.38086,0.50195 h 8.84961 z m -20.33008,24.28711 c 1.69754,0 3.14515,0.0962 4.34179,0.29102 1.19663,0.16697 2.18369,0.51618 2.9629,1.04492 v 25.67187 c -1.05751,0.72355 -2.39179,1.32184 -4.00586,1.79493 -1.58624,0.47308 -3.22824,0.70898 -4.92579,0.70898 -3.00551,0 -5.31561,-1.02856 -6.92968,-3.08789 -1.58624,-2.05932 -2.3789,-5.53964 -2.37891,-10.4375 10e-6,-3.47859 0.4586,-6.41337 1.37695,-8.80664 0.94617,-2.39328 2.24092,-4.18813 3.88282,-5.38477 1.64189,-1.19663 3.53296,-1.79492 5.67578,-1.79492 z"
       style="font-style:normal;font-variant:normal;font-weight:bold;font-stretch:normal;font-size:96px;line-height:1.25;font-family:'Merriweather Sans';-inkscape-font-specification:'Merriweather Sans Bold';letter-spacing:0px;word-spacing:0px;fill:#000000;fill-opacity:1;stroke:none;stroke-width:0.89051926"
       inkscape:connector-curvature="0" />
    <path
       d="m 403.87704,197.06814 q 0,6.011 -0.45916,8.93302 h -28.13485 q 0.37569,5.88577 3.6734,8.76605 3.33944,2.88027 9.0165,2.88027 2.7133,0 6.55366,-0.70963 3.88211,-0.75138 5.67706,-1.75321 l 2.12891,7.38852 q -2.46285,2.00367 -7.38854,3.38119 -4.92568,1.37752 -10.2688,1.37752 -7.17981,0 -12.23072,-2.92201 -5.05092,-2.92202 -7.63899,-8.43211 -2.58807,-5.55182 -2.58807,-13.2743 0,-7.01284 2.71331,-12.52293 2.71329,-5.51009 7.88944,-8.64081 5.21789,-3.13074 12.3977,-3.13074 5.17614,0 9.35045,1.87844 4.17431,1.87844 6.67889,6.05275 2.54633,4.17431 2.62981,10.72798 z m -12.10549,1.71146 q 0.0418,-0.62614 0.0418,-1.8367 0,-4.54999 -1.71147,-6.8876 -1.71146,-2.37936 -5.55182,-2.37936 -3.84037,0 -6.13624,2.54633 -2.25413,2.50459 -2.92202,8.55733 z"
       style="font-style:normal;font-variant:normal;font-weight:bold;font-stretch:normal;font-size:96px;line-height:1.25;font-family:'Merriweather Sans';-inkscape-font-specification:'Merriweather Sans Bold';letter-spacing:0px;word-spacing:0px;fill:#000000;fill-opacity:1;stroke:none;stroke-width:0.89051926"
       id="path1069"
       inkscape:connector-curvature="0" />
    <path
       d="m 433.11113,178.28375 q 2.71329,0 3.71513,0.5844 v 12.56467 q -0.96009,-0.54266 -2.21238,-0.83487 -1.21056,-0.33394 -3.50642,-0.33394 -6.01101,0 -10.60275,4.29954 v 32.10043 h -13.02384 v -47.58712 h 11.56283 l 0.5844,6.51192 q 1.04359,-1.83669 3.08899,-3.50642 2.08716,-1.66972 4.80046,-2.71329 2.75505,-1.08532 5.59358,-1.08532 z"
       style="font-style:normal;font-variant:normal;font-weight:bold;font-stretch:normal;font-size:96px;line-height:1.25;font-family:'Merriweather Sans';-inkscape-font-specification:'Merriweather Sans Bold';letter-spacing:0px;word-spacing:0px;fill:#000000;fill-opacity:1;stroke:none;stroke-width:0.89051926"
       id="path1071"
       inkscape:connector-curvature="0" />
    <g
       transform="matrix(0.89051924,0,0,0.89051924,-53.724611,-243.2246)"
       id="g1117">
      <path
         inkscape:connector-curvature="0"
         id="path1073"
         style="font-style:normal;font-variant:normal;font-weight:800;font-stretch:normal;font-size:96px;line-height:1.25;font-family:'Merriweather Sans';-inkscape-font-specification:'Merriweather Sans Ultra-Bold';letter-spacing:0px;word-spacing:0px;fill:#000000;fill-opacity:1;stroke:none"
         d="m 615.95312,456.31311 v 13.3125 h -27.42187 v 15.09375 h 21.14062 v 12.98438 h -21.14062 v 16.3125 h 30.23437 v 13.64062 h -47.90625 v -71.34375 z" />
      <path
         inkscape:connector-curvature="0"
         id="path1075"
         style="font-style:normal;font-variant:normal;font-weight:800;font-stretch:normal;font-size:96px;line-height:1.25;font-family:'Merriweather Sans';-inkscape-font-specification:'Merriweather Sans Ultra-Bold';letter-spacing:0px;word-spacing:0px;fill:#000000;fill-opacity:1;stroke:none"
         d="m 643.40625,449.75061 v 77.90625 h -17.39063 v -77.90625 z" />
      <path
         inkscape:connector-curvature="0"
         id="path1077"
         style="font-style:normal;font-variant:normal;font-weight:800;font-stretch:normal;font-size:96px;line-height:1.25;font-family:'Merriweather Sans';-inkscape-font-specification:'Merriweather Sans Ultra-Bold';letter-spacing:0px;word-spacing:0px;fill:#000000;fill-opacity:1;stroke:none"
         d="m 651.70312,512.09436 q 0.9375,0.79688 3.46875,1.92188 2.57813,1.125 5.95313,1.96875 3.375,0.84375 6.65625,0.84375 3.9375,0 5.67187,-0.9375 1.78125,-0.9375 1.78125,-2.95313 0,-1.40625 -1.3125,-2.53125 -1.3125,-1.125 -3.75,-2.10937 -2.39062,-1.03125 -6.51562,-2.39063 -7.26563,-2.39062 -10.54688,-6.46875 -3.28125,-4.125 -3.23437,-10.40625 0,-5.01562 2.90625,-8.53125 2.95312,-3.51562 7.96875,-5.25 5.0625,-1.78125 11.34375,-1.78125 5.90625,0 10.40625,1.03125 4.54687,0.98438 6.79687,2.25 l -1.54687,12.1875 q -1.03125,-0.89062 -3.14063,-1.82812 -2.10937,-0.98438 -4.73437,-1.59375 -2.57813,-0.65625 -5.01563,-0.65625 -4.40625,0 -6.28125,0.89062 -1.875,0.89063 -1.92187,2.76563 0,1.40625 0.98437,2.4375 0.98438,1.03125 3.28125,2.0625 2.29688,0.98437 6.70313,2.34375 7.59375,2.4375 11.15625,6.23437 3.60937,3.75 3.60937,9.84375 0,5.48438 -2.76562,9.32813 -2.76563,3.79687 -7.875,5.76562 -5.0625,1.92188 -11.90625,1.92188 -4.17188,0 -8.15625,-0.70313 -3.98438,-0.65625 -7.03125,-1.64062 -3.04688,-1.03125 -4.64063,-2.01563 z" />
      <path
         inkscape:connector-curvature="0"
         id="path1079"
         style="font-style:normal;font-variant:normal;font-weight:800;font-stretch:normal;font-size:96px;line-height:1.25;font-family:'Merriweather Sans';-inkscape-font-specification:'Merriweather Sans Ultra-Bold';letter-spacing:0px;word-spacing:0px;fill:#000000;fill-opacity:1;stroke:none"
         d="m 700.67187,485.60999 h -6.1875 v -9.1875 q 4.125,-1.21875 6.1875,-2.25 2.0625,-1.07813 3.04688,-3.14063 0.60937,-1.21875 2.39062,-5.71875 l 1.35938,-3.28125 h 10.54687 v 12.1875 h 13.875 v 11.39063 h -13.875 v 19.03125 q 0,4.96875 0.51563,7.21875 0.5625,2.25 1.78125,2.90625 1.26562,0.65625 3.89062,0.65625 1.82813,0 4.21875,-0.60938 2.39063,-0.65625 3.60938,-1.5 l 2.0625,9.65625 q -1.35938,1.26563 -4.125,2.53125 -2.76563,1.26563 -6.375,2.10938 -3.60938,0.79687 -7.3125,0.79687 -5.67188,0 -9.14063,-1.875 -3.42187,-1.92187 -4.96875,-5.71875 -1.5,-3.84375 -1.5,-9.79687 z" />
    </g>
  </g>
</svg>
