<?xml version="1.0" encoding="UTF-8" standalone="no"?>
<svg
   xmlns:dc="http://purl.org/dc/elements/1.1/"
   xmlns:cc="http://creativecommons.org/ns#"
   xmlns:rdf="http://www.w3.org/1999/02/22-rdf-syntax-ns#"
   xmlns:svg="http://www.w3.org/2000/svg"
   xmlns="http://www.w3.org/2000/svg"
   xmlns:xlink="http://www.w3.org/1999/xlink"
   xmlns:sodipodi="http://sodipodi.sourceforge.net/DTD/sodipodi-0.dtd"
   xmlns:inkscape="http://www.inkscape.org/namespaces/inkscape"
   width="320"
   height="320"
   viewBox="0 0 320 320.00001"
   version="1.1"
   id="svg18"
   sodipodi:docname="r.svg"
   inkscape:version="0.92.3 (2405546, 2018-03-11)">
  <metadata
     id="metadata22">
    <rdf:RDF>
      <cc:Work
         rdf:about="">
        <dc:format>image/svg+xml</dc:format>
        <dc:type
           rdf:resource="http://purl.org/dc/dcmitype/StillImage" />
        <dc:title />
      </cc:Work>
    </rdf:RDF>
  </metadata>
  <sodipodi:namedview
     pagecolor="#ffffff"
     bordercolor="#666666"
     borderopacity="1"
     objecttolerance="10"
     gridtolerance="10"
     guidetolerance="10"
     inkscape:pageopacity="0"
     inkscape:pageshadow="2"
     inkscape:window-width="1920"
     inkscape:window-height="1017"
     id="namedview20"
     showgrid="false"
     inkscape:zoom="1"
     inkscape:cx="-39.60163"
     inkscape:cy="73.981581"
     inkscape:window-x="1912"
     inkscape:window-y="-8"
     inkscape:window-maximized="1"
     inkscape:current-layer="svg18" />
  <defs
     id="defs8">
    <linearGradient
       id="a">
      <stop
         offset="0"
         stop-opacity=".4"
         id="stop2" />
      <stop
         offset="1"
         stop-opacity="0"
         id="stop4" />
    </linearGradient>
    <radialGradient
       xlink:href="#a"
       id="b"
       cx="248"
       cy="892.362"
       fx="248"
       fy="892.362"
       r="8"
       gradientTransform="matrix(0.96593,-0.25882,5.17638,19.31852,-4714.62,-17013.889)"
       gradientUnits="userSpaceOnUse" />
  </defs>
  <g
     id="g850">
    <path
       style="font-size:197.10099792px;line-height:125%;font-family:sans-serif;letter-spacing:0;word-spacing:0"
       d="m 157.158,96.516 c -3.72,0 -8.21,0.128 -13.472,0.385 -5.26,0.256 -9.816,0.384 -13.666,0.384 l -3.02,-0.05 11.296,42.154 v -11.884 c 0,-6.288 0.065,-10.906 0.193,-13.857 0.258,-3.08 0.514,-5.007 0.77,-5.777 0.386,-0.898 0.835,-1.41 1.348,-1.54 3.208,-0.897 7.7,-1.346 13.475,-1.346 17.965,0 26.947,8.917 26.947,26.753 0,7.443 -2.438,13.412 -7.314,17.903 -4.748,4.49 -9.368,6.736 -13.86,6.736 h -4.812 c -5.59,0 -9.777,-0.47 -12.568,-1.4 l 2.603,9.72 c 2.215,0.09 3.877,0.332 4.96,0.726 1.412,0.642 2.695,1.475 3.85,2.502 1.283,1.026 2.694,2.566 4.234,4.62 1.668,2.052 3.08,3.978 4.234,5.774 1.284,1.67 3.21,4.49 5.776,8.47 2.694,3.85 5.068,7.184 7.12,10.007 13.218,18.477 28.81,27.718 46.774,27.718 2.053,0 3.786,-0.193 5.198,-0.578 0.385,-0.77 0.576,-1.732 0.576,-2.887 0,-1.027 -0.19,-1.925 -0.576,-2.695 -7.7,0 -17.71,-6.738 -30.028,-20.21 -8.34,-9.112 -15.72,-20.405 -22.135,-33.878 -0.513,-0.77 -0.128,-1.41 1.155,-1.924 6.93,-3.208 12.383,-7.763 16.36,-13.666 4.107,-5.903 6.16,-11.55 6.16,-16.94 0,-6.287 -1.412,-11.804 -4.235,-16.552 -2.823,-4.748 -6.416,-8.405 -10.78,-10.97 -4.362,-2.567 -8.79,-4.493 -13.28,-5.776 -4.492,-1.284 -8.92,-1.924 -13.282,-1.924 z"
       font-size="197.101"
       letter-spacing="0"
       word-spacing="0"
       id="path12"
       inkscape:connector-curvature="0" />
    <path
       d="m 102.725,6.488 82.822,309.096 A 160,8 75 0 0 151.864,158.964 160,8 75 0 0 102.724,6.487 Z"
       id="path14"
       style="fill:url(#b)"
       inkscape:connector-curvature="0" />
  </g>
</svg>
