<svg xmlns="http://www.w3.org/2000/svg" xmlns:xlink="http://www.w3.org/1999/xlink" width="320" height="320" viewBox="0 0 320 320.00001"><defs><linearGradient id="a"><stop offset="0" stop-opacity=".4"/><stop offset="1" stop-opacity="0"/></linearGradient><radialGradient xlink:href="#a" id="b" cx="248" cy="892.362" fx="248" fy="892.362" r="8" gradientTransform="matrix(.96593 -.25882 5.17638 19.31852 -4714.62 -16281.527)" gradientUnits="userSpaceOnUse"/></defs><g transform="translate(0 -732.362)"><ellipse cx="88" cy="804.362" rx="56" ry="40" fill="none"/><path style="line-height:125%" d="M157.62 828.878c-3.72 0-8.21.128-13.472.385-5.26.256-9.816.384-13.666.384l-3.02-.05 11.296 42.154v-11.884c0-6.288.065-10.906.193-13.857.258-3.08.514-5.007.77-5.777.386-.898.835-1.41 1.348-1.54 3.208-.897 7.7-1.346 13.475-1.346 17.965 0 26.947 8.917 26.947 26.753 0 7.443-2.438 13.412-7.314 17.903-4.748 4.49-9.368 6.736-13.86 6.736h-4.812c-5.59 0-9.777-.47-12.568-1.4l2.603 9.72c2.215.09 3.877.332 4.96.726 1.412.642 2.695 1.475 3.85 2.502 1.283 1.026 2.694 2.566 4.234 4.62 1.668 2.052 3.08 3.978 4.234 5.774 1.284 1.67 3.21 4.49 5.776 8.47 2.694 3.85 5.068 7.184 7.12 10.007 13.218 18.477 28.81 27.718 46.774 27.718 2.053 0 3.786-.193 5.198-.578.385-.77.576-1.732.576-2.887 0-1.027-.19-1.925-.576-2.695-7.7 0-17.71-6.738-30.028-20.21-8.34-9.112-15.72-20.405-22.135-33.878-.513-.77-.128-1.41 1.155-1.924 6.93-3.208 12.383-7.763 16.36-13.666 4.107-5.903 6.16-11.55 6.16-16.94 0-6.287-1.412-11.804-4.235-16.552-2.823-4.748-6.416-8.405-10.78-10.97-4.362-2.567-8.79-4.493-13.28-5.776-4.492-1.284-8.92-1.924-13.282-1.924z" font-size="197.101" font-family="sans-serif" letter-spacing="0" word-spacing="0"/><path d="M102.725 738.85l82.822 309.096a160 8 75 0 0-33.683-156.62 160 8 75 0 0-49.14-152.477z" fill="url(#b)"/></g></svg>